<svg width="16" height="15" viewBox="0 0 16 15" fill="none" xmlns="http://www.w3.org/2000/svg">
<path d="M7.3441 14.8332C7.29056 14.8332 7.23032 14.8332 7.17677 14.8332C3.12742 14.7396 -0.0852843 11.376 0.00172649 7.33708C0.0485785 5.37779 0.851755 3.55894 2.2707 2.20148C3.68295 0.844029 5.55034 0.121836 7.50473 0.168645C8.93037 0.202079 10.3025 0.643419 11.4805 1.44586C11.7549 1.63309 11.8218 2.00756 11.6344 2.28173C11.447 2.55589 11.0722 2.62276 10.7978 2.43553C9.82056 1.76683 8.66934 1.39905 7.47796 1.3723C5.83814 1.33886 4.28534 1.934 3.10065 3.07079C1.91596 4.20089 1.23996 5.72552 1.20649 7.36382C1.13287 10.7407 3.82351 13.556 7.20354 13.6295C10.5836 13.7031 13.4014 11.0149 13.475 7.63799C13.4884 6.90911 13.3813 6.1936 13.147 5.50485C13.04 5.19056 13.2073 4.84952 13.5152 4.74253C13.8298 4.63554 14.1711 4.80271 14.2782 5.117C14.5593 5.93281 14.6932 6.79543 14.6731 7.66474C14.5861 11.6502 11.3131 14.8332 7.3441 14.8332Z" fill="#FF7E44"/>
<path d="M7.25709 9.49697C7.10984 9.49697 6.9559 9.44347 6.84211 9.32979L4.46605 7.05622C4.23179 6.82887 4.2184 6.44771 4.45266 6.20698C4.68023 5.96625 5.06174 5.95956 5.30269 6.18692L7.2504 8.05927L14.9743 0.342506C15.2085 0.108462 15.59 0.108462 15.8243 0.342506C16.0586 0.57655 16.0586 0.957707 15.8243 1.19175L7.68545 9.32311C7.56497 9.44347 7.41103 9.49697 7.25709 9.49697Z" fill="#FF7E44"/>
</svg>
