<svg width="16" height="17" viewBox="0 0 16 17" fill="none" xmlns="http://www.w3.org/2000/svg">
<path d="M8 0.5C3.58735 0.5 0 4.08735 0 8.5C0 12.9126 3.58735 16.5 8 16.5C12.4126 16.5 16 12.9126 16 8.5C16 4.08735 12.406 0.5 8 0.5ZM8 15.4884C4.14642 15.4884 1.01165 12.3536 1.01165 8.5C1.01165 4.64642 4.14642 1.51165 8 1.51165C11.8536 1.51165 14.9884 4.64642 14.9884 8.5C14.9884 12.3536 11.8536 15.4884 8 15.4884Z" fill="#0032A0"/>
<path d="M8.50582 8.30699V5.2188C8.50582 4.93927 8.27953 4.71298 7.99999 4.71298C7.72046 4.71298 7.49417 4.93927 7.49417 5.2188V8.5C7.49417 8.62646 7.54076 8.74626 7.62728 8.83943L10.3294 11.8211C10.4293 11.9343 10.569 11.9875 10.7022 11.9875C10.822 11.9875 10.9418 11.9476 11.0416 11.8544C11.2479 11.6681 11.2679 11.3486 11.0749 11.1423L8.50582 8.30699Z" fill="#0032A0"/>
<path d="M7.99999 2.7629C8.26622 2.7629 8.4792 2.54992 8.4792 2.28369C8.4792 2.01747 8.26622 1.80449 7.99999 1.80449C7.73377 1.80449 7.52079 2.01747 7.52079 2.28369C7.52079 2.54992 7.73377 2.7629 7.99999 2.7629Z" fill="#0032A0"/>
<path d="M7.99999 14.124C7.73377 14.124 7.52079 14.3369 7.52079 14.6032C7.52079 14.8694 7.73377 15.0824 7.99999 15.0824C8.26622 15.0824 8.4792 14.8694 8.4792 14.6032C8.4792 14.3369 8.26622 14.124 7.99999 14.124Z" fill="#0032A0"/>
<path d="M14.1564 7.96755C13.8902 7.96755 13.6772 8.18053 13.6772 8.44675C13.6772 8.71298 13.8902 8.92596 14.1564 8.92596C14.4226 8.92596 14.6356 8.71298 14.6356 8.44675C14.6356 8.18053 14.4226 7.96755 14.1564 7.96755Z" fill="#0032A0"/>
<path d="M1.83694 7.96755C1.57072 7.96755 1.35774 8.18053 1.35774 8.44675C1.35774 8.71298 1.57072 8.92596 1.83694 8.92596C2.10316 8.92596 2.31614 8.71298 2.31614 8.44675C2.31614 8.18053 2.10316 7.96755 1.83694 7.96755Z" fill="#0032A0"/>
<path d="M11.6339 12.7463C11.4542 12.9393 11.4609 13.2388 11.6473 13.4251C11.8403 13.6048 12.1398 13.5982 12.3261 13.4118C12.5125 13.2255 12.4992 12.9193 12.3128 12.7329C12.1198 12.5466 11.8203 12.5532 11.6339 12.7463Z" fill="#0032A0"/>
<path d="M3.6406 5.07238C3.8203 4.87937 3.81364 4.57987 3.62729 4.39351C3.43428 4.20715 3.12812 4.22047 2.94842 4.40682C2.76206 4.59983 2.76872 4.90599 2.96173 5.08569C3.15474 5.27205 3.45424 5.26539 3.6406 5.07238Z" fill="#0032A0"/>
<path d="M11.98 3.901C11.7937 4.08735 11.787 4.38686 11.9734 4.57987C12.1597 4.76622 12.4592 4.77288 12.6523 4.58652C12.8386 4.40017 12.8453 4.10067 12.6589 3.90765C12.4726 3.7213 12.173 3.7213 11.98 3.901Z" fill="#0032A0"/>
<path d="M3.34775 12.3003C3.15474 12.48 3.15474 12.7862 3.34109 12.9725C3.52745 13.1589 3.82695 13.1656 4.01996 12.9792C4.20632 12.7928 4.21297 12.4933 4.02662 12.3003C3.84026 12.114 3.5341 12.114 3.34775 12.3003Z" fill="#0032A0"/>
</svg>
