<svg width="33" height="33" viewBox="0 0 33 33" fill="none" xmlns="http://www.w3.org/2000/svg">
<path d="M21.4375 8.84392H2.68346C1.31259 8.84392 0.196114 9.93877 0.196114 11.2831V29.6877C0.196114 31.032 1.31259 32.1269 2.68346 32.1269H21.4516C22.8225 32.1269 23.939 31.032 23.939 29.6877V11.2831C23.939 9.93877 22.8225 8.84392 21.4375 8.84392ZM21.4516 29.6877H2.68346V11.2831H21.4516V29.6877Z" fill="#0032A0"/>
<path d="M21.6495 0.306827C21.2397 -0.0950818 20.5754 -0.0950818 20.1514 0.306827C19.7416 0.708735 19.7416 1.37396 20.1514 1.77587L20.8722 2.48268H3.58795L4.29459 1.76201C4.70443 1.34624 4.6903 0.694876 4.26632 0.292968C3.84234 -0.108941 3.17811 -0.0950819 2.76826 0.320686L0.295043 2.84301C-0.100672 3.25877 -0.100672 3.89628 0.309175 4.29819L2.78239 6.7235C2.98025 6.91753 3.2629 7.0284 3.53142 7.0284C3.79994 7.0284 4.06846 6.93139 4.28045 6.7235C4.6903 6.32159 4.6903 5.65637 4.28045 5.25446L3.55969 4.54765H20.8581L20.1514 5.26832C19.7416 5.68408 19.7557 6.33545 20.1797 6.73736C20.3776 6.93139 20.6461 7.0284 20.9146 7.0284C21.1973 7.0284 21.4658 6.91753 21.6778 6.70964L24.151 4.18732C24.5467 3.78541 24.5467 3.13404 24.1368 2.73214L21.6495 0.306827Z" fill="#0032A0"/>
<path d="M32.6871 28.8008C32.2773 28.3988 31.5989 28.3988 31.189 28.8008L30.4683 29.5076V12.5442L31.2032 13.2372C31.401 13.4312 31.6696 13.5282 31.9381 13.5282C32.2207 13.5282 32.4893 13.4174 32.7012 13.2095C33.1111 12.7937 33.097 12.1423 32.673 11.7404L30.1008 9.31512C29.6769 8.92707 29.0268 8.94093 28.6169 9.32898L26.1437 11.7543C25.7338 12.1562 25.7338 12.8214 26.1437 13.2233C26.5535 13.6252 27.2319 13.6252 27.6417 13.2233L28.3625 12.5165V29.4798L27.6276 28.7869C27.2036 28.385 26.5394 28.3988 26.1296 28.8146C25.7197 29.2304 25.7338 29.8817 26.1578 30.2837L28.73 32.709C28.9278 32.903 29.1963 33 29.4649 33C29.7334 33 30.0019 32.903 30.2139 32.6951L32.6871 30.2698C33.097 29.8679 33.097 29.2027 32.6871 28.8008Z" fill="#0032A0"/>
</svg>
