<svg width="22" height="24" viewBox="0 0 22 24" fill="none" xmlns="http://www.w3.org/2000/svg">
<path d="M10.9881 12.9377C13.1138 12.9377 14.8459 11.179 14.8459 9.02046C14.8459 6.86197 13.1138 5.1032 10.9881 5.1032C8.86242 5.1032 7.13038 6.86197 7.13038 9.02046C7.13038 11.179 8.86242 12.9377 10.9881 12.9377ZM10.9881 6.70208C12.2478 6.70208 13.2713 7.74136 13.2713 9.02046C13.2713 10.2996 12.2478 11.3388 10.9881 11.3388C9.72845 11.3388 8.70497 10.2996 8.70497 9.02046C8.70497 7.74136 9.72845 6.70208 10.9881 6.70208Z" fill="white"/>
<path d="M21.9807 22.3312L20.908 15.6658C20.7998 14.9663 20.1995 14.4467 19.5007 14.4467H18.0147C18.556 13.7671 18.9792 13.0477 19.2645 12.2882C19.7369 11.059 19.9337 9.75995 19.8452 8.42088C19.5598 3.91403 15.9973 0.296559 11.5491 0.016754C9.07893 -0.133141 6.71705 0.726258 4.90627 2.45505C3.12502 4.15386 2.11138 6.5422 2.11138 9.02046C2.11138 9.18035 2.11138 9.34024 2.12122 9.49014C2.20979 11.2589 2.87899 12.9877 4.02057 14.4467H2.66248C1.9736 14.4467 1.38313 14.9463 1.26504 15.6258L0.0250487 22.2912C-0.0536807 22.7209 0.0545722 23.1506 0.330125 23.4804C0.605678 23.8101 0.999325 24 1.43234 24H20.5833C21.0064 24 21.4001 23.8101 21.6658 23.4904C21.9315 23.1706 22.0496 22.7509 21.9807 22.3312ZM3.67612 9.02046C3.67612 6.95191 4.49294 5.03325 5.97896 3.61424C7.34688 2.30516 9.10845 1.60564 10.9783 1.60564C11.1357 1.60564 11.2932 1.61564 11.4507 1.61564C15.1017 1.84548 18.0344 4.8234 18.2706 8.53081C18.3395 9.63004 18.182 10.6993 17.7884 11.7186C17.4735 12.528 16.9617 13.3075 16.2728 14.037L11.2243 19.2933C11.1357 19.3832 11.0373 19.3932 10.9881 19.3932C10.9389 19.3932 10.8307 19.3832 10.7519 19.2933L5.75261 14.047C4.51262 12.7379 3.77454 11.099 3.69581 9.42019C3.68597 9.28028 3.67612 9.15037 3.67612 9.02046ZM1.5898 22.4111L2.77074 16.0356H5.46722L9.62019 20.3925C9.98432 20.7723 10.4665 20.9821 10.9881 20.9821C11.5097 20.9821 11.9919 20.7723 12.3462 20.4025L16.5385 16.0456H19.3728L20.3963 22.4211H1.5898V22.4111Z" fill="white"/>
</svg>
