<svg width="60" height="68" viewBox="0 0 60 68" fill="none" xmlns="http://www.w3.org/2000/svg">
<path d="M29.7059 68C28.0413 68 26.5201 67.3521 25.372 66.1971L8.38081 48.9569C3.32936 43.8299 0.373118 37.3507 0.0287014 30.6744C0 30.1673 0 29.6602 0 29.1532C0 21.1246 3.41547 13.3778 9.35666 7.91278C15.3839 2.33506 23.3055 -0.425628 31.6002 0.0532667C46.4676 0.954716 58.3786 12.6454 59.3545 27.2376C59.6415 31.5476 58.9814 35.745 57.4028 39.7452C56.1112 43.013 54.016 46.1117 51.2033 48.9569L34.0399 66.2253C32.8918 67.3521 31.3419 68 29.7059 68Z" fill="url(#paint0_angular_1_10)"/>
<circle cx="29.6699" cy="28.6274" r="20.3679" fill="white"/>
<path d="M25.7306 18.9371C25.7306 17.6595 24.6925 16.6304 23.4239 16.6304C22.1463 16.6304 21.1083 17.6684 21.1083 18.9371V32.2273H21.1171C21.1881 36.8939 24.9853 40.6557 29.6697 40.6557C34.3985 40.6557 38.2312 36.823 38.2312 32.0942C38.2312 27.3921 34.4428 23.5771 29.7407 23.5328V28.1639C31.8877 28.1994 33.6089 29.9472 33.6089 32.1031C33.6089 34.2767 31.8433 36.0422 29.6697 36.0422C27.5138 36.0422 25.7572 34.3033 25.7306 32.1563V32.041C25.7306 32.0144 25.7306 31.9789 25.7306 31.9523H25.7217L25.7838 24.4732L25.7306 18.9371Z" fill="#0060AA"/>
<path d="M27.9218 23.5417C29.3058 23.5417 30.4236 24.6596 30.4236 26.0436C30.4236 27.4277 29.3058 28.5455 27.9218 28.5455C26.5377 28.5455 25.4199 27.4277 25.4199 26.0436C25.4199 24.6596 26.5377 23.5417 27.9218 23.5417ZM27.9218 22.9207C26.2006 22.9207 24.7988 24.3225 24.7988 26.0436C24.7988 27.7648 26.2006 29.1666 27.9218 29.1666C29.6429 29.1666 31.0447 27.7648 31.0447 26.0436C31.0447 24.3225 29.6429 22.9207 27.9218 22.9207Z" fill="white"/>
<defs>
<radialGradient id="paint0_angular_1_10" cx="0" cy="0" r="1" gradientUnits="userSpaceOnUse" gradientTransform="translate(11.7114 75.927) rotate(-5.37155) scale(49.7942 136.275)">
<stop stop-color="#45ADE6"/>
<stop offset="0.571312" stop-color="#7CEAF6"/>
<stop offset="1" stop-color="#45ADE6"/>
</radialGradient>
</defs>
</svg>
