<svg width="21" height="24" viewBox="0 0 21 24" fill="none" xmlns="http://www.w3.org/2000/svg">
<path d="M10.4986 24C9.91027 24 9.37266 23.7713 8.96692 23.3637L2.96192 17.2789C1.17665 15.4694 0.131866 13.1826 0.0101436 10.8262C0 10.6473 0 10.4683 0 10.2894C0 7.45576 1.20709 4.72158 3.3068 2.79274C5.43695 0.824139 8.23658 -0.150222 11.1681 0.0188C16.4224 0.336959 20.632 4.46308 20.9769 9.61327C21.0783 11.1345 20.845 12.6159 20.2871 14.0277C19.8307 15.181 19.0902 16.2747 18.0961 17.2789L12.0303 23.3736C11.6245 23.7713 11.0768 24 10.4986 24ZM10.4885 1.54C8.20615 1.54 6.05571 2.37516 4.38202 3.91624C2.56632 5.58657 1.56211 7.85345 1.56211 10.2993C1.56211 10.4584 1.56211 10.6075 1.57225 10.7567C1.67369 12.7451 2.56632 14.6839 4.08786 16.2151L10.0929 22.2998C10.1943 22.4092 10.3363 22.4689 10.4885 22.4689C10.6406 22.4689 10.7826 22.4092 10.8841 22.2998L16.9499 16.2051C17.802 15.3501 18.4207 14.4354 18.8062 13.4709C19.2829 12.2778 19.4757 11.0152 19.3945 9.71269C19.1105 5.33801 15.5197 1.82833 11.0565 1.55988C10.8739 1.54 10.6812 1.54 10.4885 1.54Z" fill="#FF7E44"/>
<path d="M10.4986 14.674C8.03371 14.674 6.02528 12.7054 6.02528 10.2894C6.02528 7.87334 8.03371 5.90473 10.4986 5.90473C12.9635 5.90473 14.9719 7.87334 14.9719 10.2894C14.9719 12.7054 12.9635 14.674 10.4986 14.674ZM10.4986 7.44581C8.89591 7.44581 7.59754 8.71845 7.59754 10.2894C7.59754 11.8603 8.89591 13.1329 10.4986 13.1329C12.1013 13.1329 13.3997 11.8603 13.3997 10.2894C13.3997 8.71845 12.1013 7.44581 10.4986 7.44581Z" fill="#FF7E44"/>
</svg>
