<svg width="24" height="24" viewBox="0 0 24 24" fill="none" xmlns="http://www.w3.org/2000/svg">
<path d="M12.5709 20.4676H19.7246V14.1706H12.5709V20.4676ZM14.0707 15.7372H18.2149V18.9113H14.0707V15.7372Z" fill="#0032A0"/>
<path d="M21.2047 0H1.76624L0.0197345 4.41297V8.42662H0C0 8.54949 0.00986724 8.66212 0.0197345 8.78498V24L4.89415 23.9795L4.87442 15.8601H9.51202V23.9898H23.04V4.42321L21.2047 0ZM5.29871 5.34471V8.17065C5.29871 8.52901 5.19017 8.86689 5.01256 9.14334C4.58827 9.77816 3.99623 10.0956 3.24632 10.0956H3.19699C2.26946 10.0751 1.61823 9.48123 1.51955 8.6314V5.34471H5.29871ZM6.80839 8.17065C6.80839 8.16041 6.80839 8.15017 6.80839 8.13993V5.34471H10.6468V8.17065C10.6468 8.52901 10.5382 8.86689 10.3606 9.14334C9.93631 9.76792 9.34427 10.0853 8.59436 10.0853H8.54503C7.58791 10.0751 6.80839 9.25597 6.80839 8.25256V8.17065ZM12.1564 8.17065C12.1564 8.16041 12.1564 8.15017 12.1564 8.13993V5.34471H16.0047V8.15017C16.0047 8.51877 15.906 8.86689 15.7086 9.15358C15.2844 9.77816 14.6923 10.0956 13.9424 10.0956H13.8931C12.9359 10.0751 12.1564 9.25597 12.1564 8.25256V8.17065ZM17.613 5.34471H21.4612V8.15017C21.4612 8.51877 21.3626 8.86689 21.1652 9.15358C20.7409 9.77816 20.1489 10.0956 19.399 10.0956H19.3497C18.3925 10.0751 17.613 9.25597 17.613 8.25256V5.34471ZM20.218 1.56655L21.1356 3.7884H1.89451L2.77269 1.56655H20.218ZM11.0118 14.2935H3.36473L3.38446 22.4232L1.51955 22.4334V11.1911C1.99318 11.4778 2.55561 11.6416 3.16738 11.6519H3.24632C4.608 11.6519 5.47632 11.0068 6.00915 10.3515C6.60118 11.1297 7.4991 11.6314 8.51543 11.6519H8.59436C9.6995 11.6519 10.6665 11.1911 11.3572 10.3515C11.9492 11.1297 12.8471 11.6314 13.8635 11.6519H13.9424C15.0771 11.6519 16.0639 11.1604 16.7644 10.2799C17.3565 11.099 18.284 11.6416 19.3299 11.6519H19.4089C20.2081 11.6519 20.9284 11.4061 21.5303 10.9659V22.4334H11.0118V14.2935Z" fill="#0032A0"/>
</svg>
