<svg width="17" height="15" viewBox="0 0 17 15" fill="none" xmlns="http://www.w3.org/2000/svg">
<path d="M5.64512 5.00751C6.50482 5.00751 7.20703 4.30189 7.20703 3.43801C7.20703 2.57413 6.50482 1.87511 5.64512 1.87511C4.78541 1.87511 4.08321 2.58073 4.08321 3.44461C4.08321 4.30849 4.78541 5.00751 5.64512 5.00751ZM5.64512 2.91705C5.93387 2.91705 6.17013 3.15445 6.17013 3.44461C6.17013 3.73477 5.93387 3.97217 5.64512 3.97217C5.35636 3.97217 5.1201 3.73477 5.1201 3.44461C5.1201 3.15445 5.35636 2.91705 5.64512 2.91705Z" fill="#0032A0"/>
<path d="M15.4694 7.86293H15.3119L13.9272 5.32404C13.704 4.91518 13.2775 4.658 12.8115 4.658H10.7902V3.86006C10.7902 3.28634 10.3243 2.81813 9.75333 2.81813H8.84113C8.56549 1.37393 7.34484 0.272646 5.84856 0.173728C4.94291 0.114377 4.07664 0.430914 3.41382 1.05739C2.91505 1.5256 2.58036 2.14549 2.44911 2.81813H1.5369C0.965948 2.81813 0.5 3.27974 0.5 3.86006V12.4131C0.5 12.9869 0.965948 13.4551 1.5369 13.4551H2.46223C2.61974 14.2398 3.30225 14.8333 4.12914 14.8333C4.95604 14.8333 5.64512 14.2398 5.79606 13.4551H9.74677C9.7599 13.4551 9.76646 13.4551 9.77958 13.4551H11.2431C11.4006 14.2398 12.0831 14.8333 12.91 14.8333C13.7369 14.8333 14.4259 14.2398 14.5769 13.4551H15.4825C16.0469 13.4551 16.4997 12.9935 16.4997 12.4329V8.91146C16.5129 8.33114 16.0403 7.86293 15.4694 7.86293ZM4.12258 1.81576C4.53603 1.42009 5.07417 1.20907 5.64512 1.20907C5.69105 1.20907 5.74356 1.20907 5.78949 1.21566C6.88546 1.28161 7.79766 2.19824 7.86329 3.29953C7.88298 3.62925 7.83704 3.95238 7.71891 4.25573C7.62704 4.49313 7.46953 4.73054 7.25953 4.94816L5.64512 6.60338L4.05039 4.94816C3.66976 4.55249 3.44663 4.06449 3.42038 3.55671C3.42038 3.51715 3.42038 3.47758 3.42038 3.43801C3.42038 2.81813 3.66976 2.24441 4.12258 1.81576ZM5.67793 12.4131C5.40886 11.8196 4.81822 11.4108 4.12914 11.4108C3.44007 11.4108 2.84943 11.8196 2.58036 12.4131H1.5369V3.86006H2.40973C2.50161 4.52611 2.81005 5.16577 3.30225 5.68015L4.99541 7.44088C5.16604 7.61893 5.39573 7.71785 5.63855 7.71785C5.88137 7.71785 6.11106 7.61893 6.28169 7.44748L7.99454 5.68674C8.30299 5.37021 8.53268 5.0141 8.67706 4.64481C8.78206 4.38103 8.84113 4.12384 8.87394 3.86006H9.74677V12.4131H5.67793ZM12.8115 5.69993C12.8968 5.69993 12.9756 5.74609 13.015 5.82523L14.1241 7.86293H10.7837V5.69993H12.8115ZM15.476 12.4131H14.4653C14.1962 11.8196 13.6056 11.4108 12.9165 11.4108C12.2275 11.4108 11.6368 11.8196 11.3677 12.4131H10.8165V8.90487L15.4694 8.91146V12.4131H15.476Z" fill="#0032A0"/>
</svg>
