<svg width="28" height="33" viewBox="0 0 28 33" fill="none" xmlns="http://www.w3.org/2000/svg">
<path d="M24.1234 12.7875C24.0584 11.7756 23.2267 10.9739 22.2131 10.9739H19.692V7.92505H24.4483C24.8772 7.92505 25.267 7.63593 25.397 7.2154L27.1124 1.81417C27.2033 1.51191 27.1514 1.17023 26.9694 0.907392C26.7745 0.6577 26.4756 0.5 26.1637 0.5H1.83622C1.51133 0.5 1.19944 0.670842 1.0175 0.946817C0.822571 1.22279 0.783585 1.57762 0.91354 1.87988L3.0318 7.29425C3.18774 7.67536 3.55162 7.93819 3.95448 7.93819H8.29496V10.9739H6.18969C5.17605 10.9739 4.34434 11.7756 4.29236 12.7743L0.692617 30.371L0.666626 30.5682C0.666626 31.6326 1.52433 32.5 2.57696 32.5H25.423C26.4756 32.5 27.3333 31.6326 27.3333 30.5682V30.4762L24.1234 12.7875ZM4.64323 5.91437L3.3047 2.52382H24.7862L23.7206 5.91437H4.64323ZM10.2963 7.92505H17.7037V10.9608H10.2963V7.92505ZM2.70691 30.4762L6.25467 13.1029L6.28066 12.9977L22.1221 12.9846L25.293 30.4762H2.70691Z" fill="#0032A0"/>
<path d="M13.9998 13.7731C9.59437 13.7731 6.00762 17.4002 6.00762 21.8552C6.00762 26.3103 9.59437 29.9374 13.9998 29.9374C18.4053 29.9374 21.992 26.3103 21.992 21.8552C21.992 17.3871 18.4053 13.7731 13.9998 13.7731ZM13.9998 27.9004C10.699 27.9004 8.00892 25.1801 8.00892 21.8421C8.00892 18.5041 10.699 15.7838 13.9998 15.7838C17.3007 15.7838 19.9907 18.5041 19.9907 21.8421C19.9907 25.1932 17.3007 27.9004 13.9998 27.9004Z" fill="#0032A0"/>
<path d="M14.7535 21.2376V18.307C14.7535 17.8864 14.4156 17.5448 13.9997 17.5448C13.5839 17.5448 13.246 17.8864 13.246 18.307V21.2901C12.9991 21.5135 12.8431 21.8289 12.8431 22.1969C12.8431 22.8671 13.3759 23.4059 14.0387 23.4059C14.7015 23.4059 15.2343 22.8671 15.2343 22.1969C15.2213 21.8027 15.0394 21.461 14.7535 21.2376Z" fill="#0032A0"/>
</svg>
